{
  "title": "VACATION (2015) 720P HC HDRIP X264 - Exclusive",
  "uid": 12443354,
  "size": 1451753535,
  "categoryP": "video",
  "categoryS": "movies",
  "magnet": "?xt=urn:btih:d4d7a93c1042ffd0b7350a5dc14e2a50a03e240a&amp;dn=VACATION+%282015%29+720P+HC+HDRIP+X264+-+Exclusive&amp;tr=udp%3A%2F%2Ftracker.openbittorrent.com%3A80&amp;tr=udp%3A%2F%2Fopen.demonii.com%3A1337&amp;tr=udp%3A%2F%2Ftracker.coppersurfer.tk%3A6969&amp;tr=udp%3A%2F%2Fexodus.desync.com%3A6969",
  "seeders": 37,
  "leechers": 25,
  "uploader": "tykoon123",
  "files": 5,
  "time": 1442601033,
  "description": " &lt;a href=&quot;http://www.imgpuppy.com/images/2015/09/18/t68VEtd.jpg&quot; rel=&quot;nofollow&quot; target=&quot;_NEW&quot;&gt;http://www.imgpuppy.com/images/2015/09/18/t68VEtd.jpg&lt;/a&gt;\n\nRusty Griswold takes his own family on a road trip to &quot;Walley World&quot; in order to spice things up with his wife and reconnect with his sons.\n\nFormat : MPEG-4\nFormat profile : Base Media\nCodec ID : isom\nFile size : 1.35 GiB\nDuration : 1h 34mn\nOverall bit rate mode : Variable\nOverall bit rate : 2 039 Kbps\nEncoded date : UTC 2015-09-18 13:50:45\nTagged date : UTC 2015-09-18 13:50:45\n\nVideo\nID : 1\nFormat : AVC\nFormat/Info : Advanced Video Codec\nFormat profile : &lt;a class=&quot;__cf_email__&quot; href=&quot;/cdn-cgi/l/email-protection&quot; data-cfemail=&quot;236b4a444b636f170d12&quot;&gt;[email&amp;#160;protected]&lt;/a&gt;&lt;script data-cfhash='f9e31' type=&quot;text/javascript&quot;&gt;\n/* &lt;![CDATA[ */!function(){try{var t=&quot;currentScript&quot;in document?document.currentScript:function(){for(var t=document.getElementsByTagName(&quot;script&quot;),e=t.length;e--;)if(t[e].getAttribute(&quot;data-cfhash&quot;))return t[e]}();if(t&amp;&amp;t.previousSibling){var e,r,n,i,c=t.previousSibling,a=c.getAttribute(&quot;data-cfemail&quot;);if(a){for(e=&quot;&quot;,r=parseInt(a.substr(0,2),16),n=2;a.length-n;n+=2)i=parseInt(a.substr(n,2),16)^r,e+=String.fromCharCode(i);e=document.createTextNode(e),c.parentNode.replaceChild(e,c)}t.parentNode.removeChild(t);}}catch(u){}}()/* ]]&gt; */&lt;/script&gt;\nFormat settings, CABAC : Yes\nFormat settings, ReFrames : 11 frames\nCodec ID : avc1\nCodec ID/Info : Advanced Video Coding\nDuration : 1h 34mn\nBit rate : 2 000 Kbps\nMaximum bit rate : 19.8 Mbps\nWidth : 1 280 pixels\nHeight : 532 pixels\nDisplay aspect ratio : 2.40:1\nFrame rate mode : Constant\nFrame rate : 25.000 fps\nColor space : YUV\nChroma subsampling : 4:2:0\nBit depth : 8 bits\nScan type : Progressive\nBits/(Pixel*Frame) : 0.117\nStream size : 1.31 GiB (97%)\nTitle : 264:fps=&lt;a class=&quot;__cf_email__&quot; href=&quot;/cdn-cgi/l/email-protection&quot; data-cfemail=&quot;3f0d0a110f7f786f7e7c0f110a110e127b7a69124d5a490b060d06&quot;&gt;[email&amp;#160;protected]&lt;/a&gt;&lt;script data-cfhash='f9e31' type=&quot;text/javascript&quot;&gt;\n/* &lt;![CDATA[ */!function(){try{var t=&quot;currentScript&quot;in document?document.currentScript:function(){for(var t=document.getElementsByTagName(&quot;script&quot;),e=t.length;e--;)if(t[e].getAttribute(&quot;data-cfhash&quot;))return t[e]}();if(t&amp;&amp;t.previousSibling){var e,r,n,i,c=t.previousSibling,a=c.getAttribute(&quot;data-cfemail&quot;);if(a){for(e=&quot;&quot;,r=parseInt(a.substr(0,2),16),n=2;a.length-n;n+=2)i=parseInt(a.substr(n,2),16)^r,e+=String.fromCharCode(i);e=document.createTextNode(e),c.parentNode.replaceChild(e,c)}t.parentNode.removeChild(t);}}catch(u){}}()/* ]]&gt; */&lt;/script&gt;\nWriting library : x264 core 142 r2431+42 c69a006 tMod [8-bit@all X86_64]\nEncoding settings : cabac=1 / ref=11 / deblock=1:-2:-2 / analyse=0x3:0x133 / me=umh / subme=9 / psy=1 / fade_compensate=0.00 / psy_rd=1.10:0.00 / mixed_ref=1 / me_range=24 / chroma_me=1 / trellis=1 / 8x8dct=1 / cqm=0 / deadzone=21,11 / fast_pskip=0 / chroma_qp_offset=-2 / threads=18 / lookahead_threads=2 / sliced_threads=0 / nr=0 / decimate=0 / interlaced=0 / bluray_compat=0 / constrained_intra=0 / fgo=0 / bframes=6 / b_pyramid=2 / b_adapt=2 / b_bias=0 / direct=3 / weightb=1 / open_gop=0 / weightp=2 / keyint=250 / keyint_min=24 / scenecut=40 / intra_refresh=0 / rc_lookahead=120 / rc=abr / mbtree=1 / bitrate=2000 / ratetol=1.0 / qcomp=0.60 / qpmin=0:0:0 / qpmax=69:69:69 / qpstep=4 / ip_ratio=1.40 / aq=1:0.90 / aq-sensitivity=10.00 / aq-factor=1.00:1.00:1.00 / aq2=0 / aq3=0\nEncoded date : UTC 2015-09-18 13:50:45\nTagged date : UTC 2015-09-18 13:50:55\n\nAudio\nID : 2\nFormat : AAC\nFormat/Info : Advanced Audio Codec\nFormat profile : LC\nCodec ID : 40\nDuration : 1h 34mn\nSource duration : 1h 34mn\nBit rate mode : Variable\nBit rate : 61.6 Kbps\nMaximum bit rate : 68.0 Kbps\nChannel(s) : 2 channels\nChannel positions : Front: L R\nSampling rate : 44.1 KHz\nCompression mode : Lossy\nStream size : 41.8 MiB (3%)\nSource stream size : 41.8 MiB (3%)\nEncoded date : UTC 2015-08-21 02:50:45\nTagged date : UTC 2015-09-18 13:50:55\n\nScreens: &lt;a href=&quot;\nhttp://www.imgpuppy.com/image/l7Wt&quot; rel=&quot;nofollow&quot; target=&quot;_NEW&quot;&gt;\nhttp://www.imgpuppy.com/image/l7Wt&lt;/a&gt; &lt;a href=&quot;\nhttp://www.imgpuppy.com/image/lGYb&quot; rel=&quot;nofollow&quot; target=&quot;_NEW&quot;&gt;\nhttp://www.imgpuppy.com/image/lGYb&lt;/a&gt; &lt;a href=&quot;\nhttp://www.imgpuppy.com/image/laVA&quot; rel=&quot;nofollow&quot; target=&quot;_NEW&quot;&gt;\nhttp://www.imgpuppy.com/image/laVA&lt;/a&gt; &lt;a href=&quot;\nhttp://www.imgpuppy.com/image/lbOd&quot; rel=&quot;nofollow&quot; target=&quot;_NEW&quot;&gt;\nhttp://www.imgpuppy.com/image/lbOd&lt;/a&gt; &lt;a href=&quot;\nhttp://www.imgpuppy.com/image/lcN7&quot; rel=&quot;nofollow&quot; target=&quot;_NEW&quot;&gt;\nhttp://www.imgpuppy.com/image/lcN7&lt;/a&gt;",
  "parsed": {
    "xt": "urn:btih:d4d7a93c1042ffd0b7350a5dc14e2a50a03e240a",
    "dn": "VACATION (2015) 720P HC HDRIP X264 - Exclusive",
    "tr": [
      "udp://exodus.desync.com:6969",
      "udp://open.demonii.com:1337",
      "udp://tracker.coppersurfer.tk:6969",
      "udp://tracker.openbittorrent.com:80"
    ],
    "infoHash": "d4d7a93c1042ffd0b7350a5dc14e2a50a03e240a",
    "infoHashBuffer": {
      "type": "Buffer",
      "data": [
        212,
        215,
        169,
        60,
        16,
        66,
        255,
        208,
        183,
        53,
        10,
        93,
        193,
        78,
        42,
        80,
        160,
        62,
        36,
        10
      ]
    },
    "name": "VACATION (2015) 720P HC HDRIP X264 - Exclusive",
    "announce": [
      "udp://exodus.desync.com:6969",
      "udp://open.demonii.com:1337",
      "udp://tracker.coppersurfer.tk:6969",
      "udp://tracker.openbittorrent.com:80"
    ],
    "urlList": []
  },
  "previous": 2,
  "peers": 4,
  "last_updated": "2016-12-27T14:11:45.180Z"
}